<svg xmlns="http://www.w3.org/2000/svg" width="20" height="20" viewBox="0 0 20 20" fill="none">
  <path fill-rule="evenodd" clip-rule="evenodd" d="M9.5368 2.41906C9.26357 2.52212 8.90822 2.6796 8.40168 2.90446C7.64747 3.23925 6.70248 3.60649 5.62867 3.91173C4.85515 4.13162 4.31763 4.28509 3.92845 4.436C3.53517 4.5885 3.39617 4.70207 3.33548 4.78242C3.26609 4.87428 3.20057 5.02533 3.16362 5.37415C3.12583 5.73092 3.125 6.20436 3.125 6.90154L3.125 9.32075C3.125 11.4618 4.08494 13.1925 5.3324 14.5439C6.58415 15.8999 8.09825 16.8421 9.12001 17.3814C9.6443 17.6581 9.76484 17.7096 10 17.7096C10.2352 17.7096 10.3557 17.6581 10.88 17.3814C11.9018 16.8421 13.4159 15.8999 14.6676 14.5439C15.9151 13.1925 16.875 11.4618 16.875 9.32075V6.90154C16.875 6.20436 16.8742 5.73092 16.8364 5.37415C16.7994 5.02533 16.7339 4.87428 16.6645 4.78242C16.6038 4.70207 16.4648 4.5885 16.0716 4.436C15.6824 4.28509 15.1449 4.13162 14.3713 3.91173C13.2975 3.60649 12.3525 3.23925 11.5983 2.90446C11.0918 2.6796 10.7364 2.52212 10.4632 2.41906C10.1823 2.31311 10.0577 2.29297 10 2.29297C9.94226 2.29297 9.81768 2.31311 9.5368 2.41906ZM9.09563 1.2495C9.4026 1.1337 9.70444 1.04297 10 1.04297C10.2956 1.04297 10.5974 1.1337 10.9044 1.2495C11.2151 1.3667 11.6031 1.53897 12.0871 1.75381L12.1055 1.76196C12.8168 2.07773 13.7061 2.42311 14.7131 2.70937L14.7444 2.71825C15.4793 2.92714 16.0734 3.09603 16.5235 3.27055C16.9758 3.44595 17.3859 3.66352 17.662 4.029C17.9293 4.38297 18.0322 4.79651 18.0794 5.24248C18.125 5.67294 18.125 6.21306 18.125 6.867L18.125 9.32075C18.125 11.8673 16.9755 13.8867 15.5861 15.3918C14.201 16.8922 12.551 17.9129 11.4634 18.4869C11.4458 18.4962 11.4283 18.5054 11.4109 18.5146C10.9477 18.7595 10.5691 18.9596 10 18.9596C9.43088 18.9596 9.05228 18.7595 8.58909 18.5146C8.57171 18.5054 8.55421 18.4962 8.53658 18.4869C7.44902 17.9129 5.79898 16.8922 4.41391 15.3918C3.02455 13.8867 1.875 11.8673 1.875 9.32075L1.875 6.86701C1.87499 6.21306 1.87498 5.67294 1.92057 5.24248C1.96781 4.79651 2.07068 4.38297 2.33805 4.029C2.61411 3.66352 3.0242 3.44595 3.47653 3.27055C3.9266 3.09603 4.52074 2.92715 5.25563 2.71825L5.28688 2.70937C6.29391 2.42311 7.18317 2.07773 7.89452 1.76196L7.91286 1.75382C8.39684 1.53898 8.78492 1.3667 9.09563 1.2495Z" fill="#8F89C9"/>
</svg>
