<svg xmlns="http://www.w3.org/2000/svg" width="16" height="16" viewBox="0 0 16 16" fill="none">
  <path fill-rule="evenodd" clip-rule="evenodd" d="M7.99903 0.833008C9.11977 0.833033 10.0311 1.21234 10.8262 1.62402C11.0663 1.74833 11.2898 1.87076 11.5029 1.98828C12.025 2.27608 12.4881 2.53136 12.9961 2.69336L13.0127 2.69922C13.3107 2.79423 13.5579 2.87297 13.7451 2.94629C13.9214 3.01534 14.1316 3.1102 14.2803 3.27539C14.4137 3.42373 14.4819 3.59072 14.5274 3.75C14.5686 3.8946 14.6009 4.07005 14.6348 4.25781L14.6377 4.27832C15.4631 8.85519 13.6607 13.1916 9.25392 14.8789L9.23243 14.8867C8.79928 15.0526 8.50171 15.167 8.00099 15.167C7.50043 15.167 7.20352 15.0526 6.77052 14.8867L6.74806 14.8789C2.34117 13.1917 0.537113 8.85536 1.36232 4.27832C1.36353 4.27158 1.36404 4.26452 1.36525 4.25781C1.39908 4.07003 1.43141 3.89461 1.47267 3.75C1.51814 3.59069 1.58628 3.42375 1.71974 3.27539C1.86829 3.11029 2.0777 3.01536 2.25392 2.94629C2.44121 2.8729 2.68912 2.79436 2.98732 2.69922L3.00392 2.69336C3.51143 2.53142 3.97373 2.27688 4.49513 1.98926C4.70824 1.8717 4.93183 1.7484 5.17189 1.62402C5.96664 1.21228 6.87819 0.833008 7.99903 0.833008ZM7.99903 1.83301C7.1147 1.83301 6.37288 2.12781 5.63185 2.51172C5.44726 2.60736 5.25677 2.71259 5.06153 2.82031C4.50804 3.12569 3.91549 3.45254 3.30763 3.64648C2.98837 3.74835 2.77251 3.81783 2.61915 3.87793C2.51828 3.91747 2.47411 3.9419 2.45997 3.9502C2.45468 3.96084 2.44535 3.98325 2.4336 4.02441C2.40776 4.11507 2.38446 4.24022 2.34571 4.45508C1.58531 8.6723 3.24685 12.4668 7.10548 13.9443C7.54836 14.1139 7.69413 14.167 8.00099 14.167C8.30793 14.167 8.45359 14.1139 8.89649 13.9443C12.7548 12.4669 14.415 8.67251 13.6543 4.45508C13.6156 4.24024 13.5923 4.11508 13.5664 4.02441C13.5547 3.98325 13.5453 3.96084 13.54 3.9502C13.5259 3.9419 13.4818 3.91651 13.3809 3.87695C13.2275 3.81689 13.0116 3.74827 12.6924 3.64648C12.0843 3.45255 11.4914 3.12573 10.9375 2.82031C10.7422 2.71263 10.5519 2.60734 10.3672 2.51172C9.62569 2.12777 8.88339 1.83303 7.99903 1.83301ZM11.166 5.5293C11.4262 5.43715 11.7114 5.57293 11.8037 5.83301C11.8959 6.09327 11.7602 6.37945 11.5 6.47168C11.1155 6.60785 10.6855 6.8943 10.2432 7.28223C9.80606 7.66559 9.38319 8.12387 9.01075 8.57031C8.63934 9.01554 8.32407 9.44164 8.10157 9.75684C7.9905 9.91419 7.81428 10.1794 7.75489 10.2686C7.65827 10.4203 7.48733 10.5081 7.30763 10.499C7.12766 10.4898 6.96634 10.3848 6.88575 10.2236C6.58209 9.61632 6.30081 9.35711 6.13868 9.24902C6.05732 9.19483 6.00021 9.17472 5.97657 9.16797C5.97251 9.16681 5.96915 9.16656 5.96681 9.16602C5.70615 9.14899 5.50011 8.93194 5.50001 8.66699C5.50001 8.39085 5.72582 8.16699 6.00196 8.16699C6.36437 8.16709 6.52511 8.30478 6.69337 8.41699C6.90228 8.55626 7.12961 8.76621 7.35841 9.07715C7.58574 8.75937 7.88973 8.35337 8.24317 7.92969C8.63538 7.45955 9.09474 6.95935 9.58399 6.53027C10.0681 6.10574 10.6094 5.72647 11.166 5.5293Z" fill="#999999"/>
</svg>
